<?xml version="1.0" encoding="UTF-8" standalone="no"?>
<!-- Created with Inkscape (http://www.inkscape.org/) -->

<svg
   xmlns:dc="http://purl.org/dc/elements/1.1/"
   xmlns:cc="http://creativecommons.org/ns#"
   xmlns:rdf="http://www.w3.org/1999/02/22-rdf-syntax-ns#"
   xmlns:svg="http://www.w3.org/2000/svg"
   xmlns="http://www.w3.org/2000/svg"
   version="1.1"
   width="435.46533"
   height="236.95021"
   id="svg2">
  <defs
     id="defs4">
    <filter
       x="0"
       y="0"
       width="1"
       height="1"
       color-interpolation-filters="sRGB"
       id="filter3029">
      <feColorMatrix
         id="feColorMatrix3031"
         result="result2"
         type="saturate"
         in="SourceGraphic"
         values="0" />
      <feFlood
         id="feFlood3033"
         result="result1"
         flood-opacity="1"
         flood-color="rgb(160,67,0)" />
      <feBlend
         in2="result1"
         mode="multiply"
         in="result2"
         result="result5"
         id="feBlend3035" />
      <feBlend
         in2="result2"
         mode="screen"
         result="result3"
         id="feBlend3037" />
      <feComposite
         in2="result2"
         operator="arithmetic"
         k1="0"
         k2="1"
         k3="0"
         k4="0"
         result="result4"
         id="feComposite3039" />
      <feComposite
         in2="SourceAlpha"
         operator="in"
         in="result4"
         result="fbSourceGraphic"
         id="feComposite3041" />
      <feColorMatrix
         id="feColorMatrix3984"
         values="0 0 0 -1 0 0 0 0 -1 0 0 0 0 -1 0 0 0 0 1 0"
         in="fbSourceGraphic"
         result="fbSourceGraphicAlpha" />
      <feColorMatrix
         in="fbSourceGraphic"
         result="result1"
         values="0"
         type="saturate"
         id="feColorMatrix3986" />
      <feFlood
         result="result6"
         flood-color="rgb(9,111,152)"
         id="feFlood3988" />
      <feBlend
         in2="result1"
         mode="screen"
         result="result2"
         id="feBlend3990" />
      <feComposite
         in2="fbSourceGraphic"
         operator="in"
         in="result2"
         id="feComposite3992" />
    </filter>
    <filter
       x="-0.076286756"
       y="-0.28103852"
       width="1.1525735"
       height="1.562077"
       color-interpolation-filters="sRGB"
       id="filter4149">
      <feGaussianBlur
         id="feGaussianBlur4151"
         stdDeviation="5.488077" />
    </filter>
  </defs>
  <metadata
     id="metadata7">
    <rdf:RDF>
      <cc:Work
         rdf:about="">
        <dc:format>image/svg+xml</dc:format>
        <dc:type
           rdf:resource="http://purl.org/dc/dcmitype/StillImage" />
        <dc:title></dc:title>
      </cc:Work>
    </rdf:RDF>
  </metadata>
  <g
     transform="translate(-119.56688,-112.37966)"
     id="layer1">
    <g
       transform="matrix(1.7970479,0,0,1.7970479,-321.20469,430.65758)"
       id="g4019"
       style="fill:none;stroke:none;filter:url(#filter3029)">
      <path
         d="M 254.07695,-115.15671 376.3841,-51.812764 479.70551,-111.82682 356.62538,-151.39793 z"
         id="path4021"
         style="fill:#afafde;fill-rule:evenodd;stroke:none" />
      <path
         d="m 254.07695,-118.61548 0,3.45877 102.54843,-36.24122 0,-2.85847 z"
         id="path4023"
         style="fill:#353564;fill-rule:evenodd;stroke:none" />
      <path
         d="m 356.62538,-154.2564 123.08013,38.79778 0,3.6318 -123.08013,-39.57111 z"
         id="path4025"
         style="fill:#e9e9ff;fill-rule:evenodd;stroke:none" />
      <path
         d="M 254.07695,-118.61548 376.3841,-56.471983 479.70551,-115.45862 356.62538,-154.2564 z"
         id="path4027"
         style="fill:#4d4d9f;fill-rule:evenodd;stroke:none" />
      <path
         d="m 376.3841,-56.471983 0,4.659219 103.32141,-60.014056 0,-3.6318 z"
         id="path4029"
         style="fill:#d7d7ff;fill-rule:evenodd;stroke:none" />
      <path
         d="m 254.07695,-118.61548 122.30715,62.143497 0,4.659219 -122.30715,-63.343946 z"
         id="path4031"
         style="fill:#8686bf;fill-rule:evenodd;stroke:none" />
    </g>
    <g
       transform="matrix(0.49286634,0,0,0.49286634,19.571055,785.66187)"
       id="g2989"
       style="fill:none;stroke:none;filter:url(#filter3029)">
      <path
         d="m 402.91145,-1152.4518 142.74115,64.5016 136.13574,-62.1503 -142.59084,-39.0003 z"
         id="path2999"
         style="fill:#afafde;fill-rule:evenodd;stroke:none" />
      <path
         d="m 402.91145,-1338.8109 0,186.3591 136.28605,-36.649 0,-149.6097 z"
         id="path2991"
         style="fill:#353564;fill-rule:evenodd;stroke:none" />
      <path
         d="m 539.1975,-1338.7105 142.59084,0.2652 0,188.3448 -142.59084,-39.0003 z"
         id="path3001"
         style="fill:#e9e9ff;fill-rule:evenodd;stroke:none" />
      <path
         d="m 402.91145,-1338.8109 142.74115,0.3182 136.13574,0.047 -142.59084,-0.2652 z"
         id="path2993"
         style="fill:#4d4d9f;fill-rule:evenodd;stroke:none" />
      <path
         d="m 545.6526,-1338.4927 0,250.5425 136.13574,-62.1503 0,-188.3448 z"
         id="path2997"
         style="fill:#d7d7ff;fill-rule:evenodd;stroke:none" />
      <path
         d="m 402.91145,-1338.8109 142.74115,0.3182 0,250.5425 -142.74115,-64.5016 z"
         id="path2995"
         style="fill:#8686bf;fill-rule:evenodd;stroke:none" />
    </g>
    <g
       id="g4453">
      <path
         d="m 371.51832,233.84057 c 0,-20.68838 -17.54909,-37.45962 -39.19697,-37.45962 -21.64789,0 -39.19697,16.77124 -39.19697,37.45962 0,0 0,0 0,0 m 78.35723,0.49286 c 0,-4.08354 -17.53264,-7.3939 -39.16026,-7.3939 -21.62762,0 -39.16026,3.31036 -39.16026,7.3939 0,4.08354 17.53264,7.39391 39.16026,7.39391 21.62762,0 39.16026,-3.31037 39.16026,-7.39391 z"
         id="path3831"
         style="fill:none;stroke:#000000;stroke-width:0.46467939;stroke-opacity:1" />
      <g
         id="g4442">
        <path
           d="m 308.76897,240.26997 c -6.14149,-1.23469 -15.90054,-2.45317 -15.7108,-6.37329 -0.18501,-17.00135 12.38321,-32.44159 29.83326,-36.30282 -9.88594,2.984 -14.97409,21.715 -14.12246,42.67611 z"
           id="path3964"
           style="fill:#356193;fill-opacity:0.48888891;stroke:none" />
        <path
           d="m 315.10333,244.79368 a 21.289062,75.585937 0 1 1 42.06837,-23.32104 l -21.03889,11.55361 z"
           transform="matrix(0.68996236,-0.04621949,0,0.47432691,91.442144,138.64215)"
           id="path3962"
           style="fill:#7b8c9d;fill-opacity:1;stroke:none" />
      </g>
      <path
         d="m 210.74219,144.27443 a 1.171875,1.4648437 0 1 1 -2.34375,0 1.171875,1.4648437 0 1 1 2.34375,0 z"
         transform="matrix(2.1333333,0,0,0.68266667,-114.6649,135.3854)"
         id="path4437"
         style="fill:#000000;fill-opacity:0.50222222;fill-rule:nonzero;stroke:none" />
    </g>
    <path
       d="m 196.875,217.98718 88.28125,40.625 84.375,-39.0625 -17.27009,-5.73683 c -67.07063,27.17192 -67.07063,27.17192 -67.07063,27.17192 l -70.3236,-29.23942 z"
       id="path4083"
       style="opacity:0.5;fill:#000000;fill-opacity:1;stroke:none;filter:url(#filter4149)" />
  </g>
</svg>
