<?xml version="1.0" encoding="UTF-8" standalone="no"?>
<!DOCTYPE svg PUBLIC "-//W3C//DTD SVG 1.1//EN"
 "http://www.w3.org/Graphics/SVG/1.1/DTD/svg11.dtd">
<!-- Generated by graphviz version 2.40.1 (20161225.0304)
 -->
<!-- Title: callgraph Pages: 1 -->
<svg width="93pt" height="260pt"
 viewBox="0.00 0.00 93.24 260.00" xmlns="http://www.w3.org/2000/svg" xmlns:xlink="http://www.w3.org/1999/xlink">
<g id="graph0" class="graph" transform="scale(1 1) rotate(0) translate(4 256)">
<title>callgraph</title>
<polygon fill="#ffffff" stroke="transparent" points="-4,4 -4,-256 89.2421,-256 89.2421,4 -4,4"/>
<!-- func1 -->
<g id="node1" class="node">
<title>func1</title>
<ellipse fill="none" stroke="#000000" cx="30.2421" cy="-90" rx="30.4862" ry="18"/>
<text text-anchor="middle" x="30.2421" y="-85.8" font-family="Times,serif" font-size="14.00" fill="#000000">func1</text>
</g>
<!-- foo -->
<g id="node2" class="node">
<title>foo</title>
<ellipse fill="none" stroke="#000000" cx="30.2421" cy="-18" rx="27" ry="18"/>
<text text-anchor="middle" x="30.2421" y="-13.8" font-family="Times,serif" font-size="14.00" fill="#000000">foo</text>
</g>
<!-- func1&#45;&gt;foo -->
<g id="edge1" class="edge">
<title>func1&#45;&gt;foo</title>
<path fill="none" stroke="#000000" d="M30.2421,-71.8314C30.2421,-64.131 30.2421,-54.9743 30.2421,-46.4166"/>
<polygon fill="#000000" stroke="#000000" points="33.7422,-46.4132 30.2421,-36.4133 26.7422,-46.4133 33.7422,-46.4132"/>
</g>
<!-- func2 -->
<g id="node3" class="node">
<title>func2</title>
<ellipse fill="none" stroke="#000000" cx="30.2421" cy="-234" rx="30.4862" ry="18"/>
<text text-anchor="middle" x="30.2421" y="-229.8" font-family="Times,serif" font-size="14.00" fill="#000000">func2</text>
</g>
<!-- func2&#45;&gt;func1 -->
<g id="edge2" class="edge">
<title>func2&#45;&gt;func1</title>
<path fill="none" stroke="#000000" d="M26.9106,-216.0736C25.1334,-205.5982 23.1334,-192.0982 22.2421,-180 21.0665,-164.0432 21.0665,-159.9568 22.2421,-144 22.8688,-135.4935 24.0436,-126.2939 25.3037,-117.9399"/>
<polygon fill="#000000" stroke="#000000" points="28.7819,-118.3546 26.9106,-107.9264 21.8703,-117.2455 28.7819,-118.3546"/>
</g>
<!-- bar -->
<g id="node4" class="node">
<title>bar</title>
<ellipse fill="none" stroke="#000000" cx="58.2421" cy="-162" rx="27" ry="18"/>
<text text-anchor="middle" x="58.2421" y="-157.8" font-family="Times,serif" font-size="14.00" fill="#000000">bar</text>
</g>
<!-- func2&#45;&gt;bar -->
<g id="edge3" class="edge">
<title>func2&#45;&gt;bar</title>
<path fill="none" stroke="#000000" d="M37.1635,-216.2022C40.3508,-208.0064 44.2023,-198.1024 47.7365,-189.0145"/>
<polygon fill="#000000" stroke="#000000" points="51.0379,-190.1817 51.4004,-179.593 44.5138,-187.6445 51.0379,-190.1817"/>
</g>
<!-- bar&#45;&gt;func1 -->
<g id="edge4" class="edge">
<title>bar&#45;&gt;func1</title>
<path fill="none" stroke="#000000" d="M51.4641,-144.5708C48.2787,-136.3798 44.4064,-126.4225 40.846,-117.2671"/>
<polygon fill="#000000" stroke="#000000" points="44.0388,-115.8203 37.1522,-107.7689 37.5147,-118.3575 44.0388,-115.8203"/>
</g>
</g>
</svg>
