<?xml version="1.0" encoding="UTF-8" standalone="no"?>
<!-- Created with Inkscape (http://www.inkscape.org/) -->

<svg
   xmlns:dc="http://purl.org/dc/elements/1.1/"
   xmlns:cc="http://creativecommons.org/ns#"
   xmlns:rdf="http://www.w3.org/1999/02/22-rdf-syntax-ns#"
   xmlns:svg="http://www.w3.org/2000/svg"
   xmlns="http://www.w3.org/2000/svg"
   xmlns:sodipodi="http://sodipodi.sourceforge.net/DTD/sodipodi-0.dtd"
   xmlns:inkscape="http://www.inkscape.org/namespaces/inkscape"
   width="1500.5"
   height="203.375"
   id="svg2"
   version="1.1"
   inkscape:version="0.48.1 r9760"
   sodipodi:docname="social-icons.svg"
   inkscape:export-filename="/Users/gedge/Sites/thegedge.github.com/assets/img/social-icons.png"
   inkscape:export-xdpi="14.16"
   inkscape:export-ydpi="14.16">
  <defs
     id="defs4" />
  <sodipodi:namedview
     id="base"
     pagecolor="#ffffff"
     bordercolor="#666666"
     borderopacity="1.0"
     inkscape:pageopacity="0"
     inkscape:pageshadow="2"
     inkscape:zoom="0.70710678"
     inkscape:cx="557.46621"
     inkscape:cy="10.117017"
     inkscape:document-units="px"
     inkscape:current-layer="twitter"
     showgrid="false"
     inkscape:window-width="1280"
     inkscape:window-height="752"
     inkscape:window-x="0"
     inkscape:window-y="0"
     inkscape:window-maximized="1"
     fit-margin-top="0"
     fit-margin-left="0"
     fit-margin-right="0"
     fit-margin-bottom="0"
     inkscape:snap-global="true"
     showborder="false">
    <inkscape:grid
       type="xygrid"
       id="grid3039"
       empspacing="5"
       visible="true"
       enabled="true"
       snapvisiblegridlinesonly="true" />
  </sodipodi:namedview>
  <metadata
     id="metadata7">
    <rdf:RDF>
      <cc:Work
         rdf:about="">
        <dc:format>image/svg+xml</dc:format>
        <dc:type
           rdf:resource="http://purl.org/dc/dcmitype/StillImage" />
        <dc:title />
      </cc:Work>
    </rdf:RDF>
  </metadata>
  <g
     inkscape:label="GitHub"
     id="github">
    <g
       inkscape:export-ydpi="57.599998"
       inkscape:export-xdpi="57.599998"
       inkscape:export-filename="/Users/gedge/Sites/thegedge.github.com/assets/images/social-icons/GitHub.png"
       id="g4465"
       transform="translate(1,-3.375)">
      <rect
         ry="39.599998"
         y="4.3621826"
         x="0"
         height="198"
         width="198"
         id="rect4467"
         style="fill:#ececec;stroke:none" />
      <path
         style="fill:#ffffff;fill-opacity:1;stroke:none"
         d="M 39.599998,4.3621826 158.4,4.3621826 C 180.3384,4.3621826 198,22.023782 198,43.962181 99,43.375 99,143.375 0,142.76218 L 0,43.962181 C 0,22.023782 17.661599,4.3621826 39.599998,4.3621826 z"
         id="path4469"
         inkscape:connector-curvature="0"
         sodipodi:nodetypes="ssccss" />
      <rect
         style="fill:none;stroke:#c8c8c8;stroke-width:5;stroke-linecap:round;stroke-linejoin:miter;stroke-miterlimit:4;stroke-opacity:0.39215686;stroke-dasharray:none;stroke-dashoffset:0"
         id="rect4471"
         width="195"
         height="195"
         x="1.5"
         y="5.875"
         ry="38.999996" />
    </g>
    <path
       inkscape:export-ydpi="57.599998"
       inkscape:export-xdpi="57.599998"
       inkscape:export-filename="/Users/gedge/Sites/thegedge.github.com/assets/images/social-icons/GitHub.png"
       inkscape:connector-curvature="0"
       id="path4473"
       d="M 115.62277,171.6515 C 151.49281,165.22496 179.33365,128.14532 173.68189,91.805863 169.319,57.500124 137.81833,29.406613 103.32698,28.429214 72.830016,26.595266 41.793317,44.674228 29.911796,73.118789 19.758886,96.143806 23.154749,124.58402 39.213151,144.11752 56.297475,166.40014 86.369275,178.28555 113.97157,171.9854 L 114.79796,171.82235 115.62277,171.6515 z M 67.584948,156.16935 C 52.331352,146.48623 38.506609,131.60537 35.677306,113.20067 35.175766,102.15779 34.093311,90.639663 37.445802,79.953011 48.594882,49.447011 84.719268,30.225659 116.09618,39.665805 138.1443,45.967601 157.68128,63.465884 162.68755,86.367125 168.00007,107.21846 160.86963,130.43901 144.86677,144.81441 138.33809,150.42661 131.88192,157.08165 123.40232,159.51991 111.81056,160.70817 117.29479,144.57748 114.0637,137.7311 110.30731,126.92008 121.25514,124.27155 129.05967,122.04431 142.88946,113.48809 146.41818,93.550156 138.19214,79.916959 134.36966,74.046545 140.08893,59.137221 129.57256,60.074043 121.22298,65.032031 111.40087,66.306345 101.86819,65.521963 90.977801,65.553703 79.152292,66.488019 69.500554,60.441861 59.153133,59.541223 63.237382,72.593815 60.944016,78.734202 52.966244,91.377372 54.201262,110.53374 66.523926,119.96537 71.497418,125.40442 86.005776,122.63789 84.155458,132.56134 79.196325,142.99361 66.992281,136.64806 61.612531,130.19773 57.722726,126.98134 52.871384,130.68104 58.137606,134.06903 62.644686,140.1505 69.076292,146.82723 77.345871,145.72138 88.15204,147.55321 81.291765,166.59117 71.965295,158.53571 70.474493,157.80531 69.021411,157.00073 67.584948,156.16935 z"
       style="fill:#000000" />
  </g>
  <g
     id="facebook"
     inkscape:label="Facebook"
     transform="translate(35.100006,0)">
    <g
       id="g3967"
       transform="translate(226,0)"
       inkscape:export-filename="/Users/gedge/Sites/thegedge.github.com/assets/images/social-icons/Facebook.png"
       inkscape:export-xdpi="57.599998"
       inkscape:export-ydpi="57.599998">
      <rect
         ry="39.599998"
         y="4.3621826"
         x="0"
         height="198"
         width="198"
         id="rect3969"
         style="fill:#335599;fill-opacity:1;stroke:none" />
      <path
         style="fill:#ffffff;fill-opacity:0.39215686;stroke:none"
         d="M 39.599998,4.3621826 158.4,4.3621826 C 180.3384,4.3621826 198,22.023782 198,43.962181 99,43.375 99,143.375 0,142.76218 L 0,43.962181 C 0,22.023782 17.661599,4.3621826 39.599998,4.3621826 z"
         id="path3971"
         inkscape:connector-curvature="0"
         sodipodi:nodetypes="ssccss" />
      <rect
         style="fill:none;stroke:#c8c8c8;stroke-width:5;stroke-linecap:round;stroke-linejoin:miter;stroke-miterlimit:4;stroke-opacity:0.39215686;stroke-dasharray:none;stroke-dashoffset:0"
         id="rect3973"
         width="195"
         height="195"
         x="1.5"
         y="5.875"
         ry="38.999996" />
    </g>
    <path
       sodipodi:nodetypes="ccccccccccccccccc"
       inkscape:connector-curvature="0"
       id="path3975"
       d="M 294.42987,102.00065 C 294.42987,79.305017 294.42987,79.305017 294.42987,79.305017 L 307.1927,79.305017 307.1927,56.67796 C 306.70364,46.768643 318.97743,34.494865 328.7349,35.135761 L 356.47628,35.135761 356.47628,57.60784 342.83805,57.60784 C 337.38808,57.705456 336.89494,59.042421 336.79383,63.652054 L 336.79383,78.685102 356.78623,78.685102 353.34399,102.00065 337.38808,102.00065 337.38808,169.50642 306.70364,169.50642 306.70364,102.00065 z"
       style="fill:#ffffff;fill-opacity:1;stroke:none"
       inkscape:export-filename="/Users/gedge/Sites/thegedge.github.com/assets/images/social-icons/Facebook.png"
       inkscape:export-xdpi="57.599998"
       inkscape:export-ydpi="57.599998" />
  </g>
  <g
     inkscape:label="Twitter"
     id="twitter"
     transform="translate(70.200012,0)">
    <g
       id="g4485"
       transform="translate(451,-1.6875)"
       inkscape:export-filename="/Users/gedge/Sites/thegedge.github.com/assets/images/social-icons/Facebook.png"
       inkscape:export-xdpi="57.599998"
       inkscape:export-ydpi="57.599998">
      <rect
         ry="39.599998"
         y="4.3621826"
         x="0"
         height="198"
         width="198"
         id="rect4487"
         style="fill:#3acbf3;fill-opacity:1;stroke:none" />
      <path
         style="fill:#ffffff;fill-opacity:0.39215686;stroke:none"
         d="M 39.599998,4.3621826 158.4,4.3621826 C 180.3384,4.3621826 198,22.023782 198,43.962181 99,43.375 99,143.375 0,142.76218 L 0,43.962181 C 0,22.023782 17.661599,4.3621826 39.599998,4.3621826 z"
         id="path4489"
         inkscape:connector-curvature="0"
         sodipodi:nodetypes="ssccss" />
      <rect
         style="fill:none;stroke:#c8c8c8;stroke-width:5;stroke-linecap:round;stroke-linejoin:miter;stroke-miterlimit:4;stroke-opacity:0.39215686;stroke-dasharray:none;stroke-dashoffset:0"
         id="rect4491"
         width="195"
         height="195"
         x="1.5"
         y="5.875"
         ry="38.999996" />
      <path
         sodipodi:nodetypes="ssccss"
         inkscape:connector-curvature="0"
         id="path4493"
         d="M 39.599998,4.3621826 158.4,4.3621826 C 180.3384,4.3621826 198,22.023782 198,43.962181 99,43.375 99,143.375 0,142.76218 L 0,43.962181 C 0,22.023782 17.661599,4.3621826 39.599998,4.3621826 z"
         style="fill:#ffffff;fill-opacity:0.19607843;stroke:none" />
      <rect
         ry="38.999996"
         y="5.875"
         x="1.5"
         height="195"
         width="195"
         id="rect4495"
         style="fill:none;stroke:#c8c8c8;stroke-width:5;stroke-linecap:round;stroke-linejoin:miter;stroke-miterlimit:4;stroke-opacity:0.39215686;stroke-dasharray:none;stroke-dashoffset:0" />
    </g>
    <path
       id="twitter_bird"
       style="fill:#ffffff;fill-opacity:1;fill-rule:nonzero;stroke:none"
       d="M 609.58206,67.033858 C 605.20958,68.973489 600.50965,70.283811 595.57797,70.873305 600.61127,67.855705 604.47805,63.077342 606.29884,57.383241 601.58703,60.177998 596.36892,62.206767 590.81446,63.300186 586.3671,58.561046 580.03002,55.600491 573.01668,55.600491 559.55098,55.600491 548.63295,66.517454 548.63295,79.983155 548.63295,81.894266 548.84854,83.755456 549.26434,85.539985 528.99947,84.523229 511.03221,74.81556 499.00631,60.063306 496.90718,63.664461 495.70476,67.85333 495.70476,72.322086 495.70476,80.781831 500.00935,88.245014 506.5524,92.6175 502.55535,92.490926 498.79536,91.393939 495.50815,89.567817 495.50582,89.669434 495.50582,89.771043 495.50582,89.874442 495.50582,101.68831 503.91096,111.54287 515.06526,113.78361 513.0195,114.34072 510.86534,114.63904 508.64154,114.63904 507.07028,114.63904 505.54282,114.48584 504.05375,114.20143 507.15663,123.88818 516.16159,130.93841 526.83158,131.13434 518.4866,137.67477 507.97301,141.57293 496.54878,141.57293 494.58056,141.57293 492.63951,141.45711 490.7321,141.23195 501.52284,148.15007 514.33986,152.18748 528.10969,152.18748 572.95964,152.18748 597.48611,115.03272 597.48611,82.810593 597.48611,81.753425 597.46174,80.702202 597.4148,79.656316 602.1795,76.217988 606.3131,71.923939 609.58206,67.033858"
       inkscape:connector-curvature="0" />
  </g>
  <g
     id="google_plus"
     inkscape:label="Google+"
     transform="translate(105.30005,0)">
    <g
       inkscape:export-ydpi="57.599998"
       inkscape:export-xdpi="57.599998"
       inkscape:export-filename="/Users/gedge/Sites/thegedge.github.com/assets/images/social-icons/Facebook.png"
       transform="translate(676,-1.6875)"
       id="g4612">
      <rect
         style="fill:#3acbf3;fill-opacity:1;stroke:none"
         id="rect4614"
         width="198"
         height="198"
         x="0"
         y="4.3621826"
         ry="39.599998" />
      <path
         sodipodi:nodetypes="ssccss"
         inkscape:connector-curvature="0"
         id="path4616"
         d="M 39.599998,4.3621826 158.4,4.3621826 C 180.3384,4.3621826 198,22.023782 198,43.962181 99,43.375 99,143.375 0,142.76218 L 0,43.962181 C 0,22.023782 17.661599,4.3621826 39.599998,4.3621826 z"
         style="fill:#ffffff;fill-opacity:0.39215686;stroke:none" />
      <rect
         ry="38.999996"
         y="5.875"
         x="1.5"
         height="195"
         width="195"
         id="rect4618"
         style="fill:none;stroke:#c8c8c8;stroke-width:5;stroke-linecap:round;stroke-linejoin:miter;stroke-miterlimit:4;stroke-opacity:0.39215686;stroke-dasharray:none;stroke-dashoffset:0" />
      <rect
         ry="39.599998"
         y="4.3621826"
         x="0"
         height="198"
         width="198"
         id="rect4620"
         style="fill:#d84338;fill-opacity:1;stroke:none" />
      <path
         style="fill:#ffffff;fill-opacity:0.39215686;stroke:none"
         d="M 39.599998,4.3621826 158.4,4.3621826 C 180.3384,4.3621826 198,22.023782 198,43.962181 99,43.375 99,143.375 0,142.76218 L 0,43.962181 C 0,22.023782 17.661599,4.3621826 39.599998,4.3621826 z"
         id="path4622"
         inkscape:connector-curvature="0"
         sodipodi:nodetypes="ssccss" />
      <rect
         style="fill:none;stroke:#c8c8c8;stroke-width:5;stroke-linecap:round;stroke-linejoin:miter;stroke-miterlimit:4;stroke-opacity:0.39215686;stroke-dasharray:none;stroke-dashoffset:0"
         id="rect4624"
         width="195"
         height="195"
         x="1.5"
         y="5.875"
         ry="38.999996" />
    </g>
    <g
       id="g4610"
       transform="translate(683.81603,-2.9584973)">
      <text
         inkscape:transform-center-y="18.234279"
         sodipodi:linespacing="125%"
         id="text4632"
         y="87.388519"
         x="97.429199"
         style="font-size:103.14867401px;font-style:normal;font-variant:normal;font-weight:bold;font-stretch:normal;text-align:start;line-height:125%;writing-mode:lr-tb;text-anchor:start;fill:#ffffff;fill-opacity:1;fill-rule:nonzero;stroke:none;font-family:Times New Roman;-inkscape-font-specification:Times New Roman"
         xml:space="preserve"><tspan
           style="font-style:normal;font-variant:normal;font-weight:bold;font-stretch:normal;font-family:Sans;-inkscape-font-specification:Times Bold"
           y="87.388519"
           x="97.429199"
           id="tspan4634"
           sodipodi:role="line">+</tspan></text>
      <path
         inkscape:connector-curvature="0"
         id="path4630"
         d="M 60.222567,29.434424 C 2.1465335,37.840887 9.3625021,104.1997 59.581518,101.72722 56.394747,104.8041 56.676343,115.68242 63.544365,121.89112 29.09434,123.81417 8.667709,138.08907 9.4631764,157.67328 10.792787,190.40797 100.65965,204.76547 107.36878,149.10654 106.37809,118.30735 84.75067,118.90379 79.104361,109.79861 77.256062,105.52043 77.376897,102.06507 78.201066,98.988201 99.024921,82.724692 111.43946,64.319437 87.758514,38.001164 102.81323,37.39677 106.67706,34.004788 109.2045,29.609255 L 60.222567,29.434424 z M 55.531257,36.515096 C 65.781815,36.390178 76.248707,47.191413 79.54144,61.807376 83.053696,77.397751 77.09532,91.440375 66.225113,93.160483 55.354915,94.880592 43.687486,83.633406 40.17523,68.04303 36.662984,52.452673 42.62136,38.410036 53.491557,36.689928 54.170947,36.582419 54.847885,36.523424 55.531257,36.515096 z M 60.222567,130.31216 C 78.06535,130.31216 92.537239,140.64506 92.537239,153.38991 92.537239,171.73906 78.06535,176.46765 60.222567,176.46765 42.379803,176.46765 27.937031,166.13474 27.937031,153.38991 27.937031,140.64506 42.379803,130.31216 60.222567,130.31216 z"
         style="fill:#ffffff;fill-opacity:1;stroke:none" />
    </g>
  </g>
  <g
     inkscape:label="LinkedIn"
     id="linked_in"
     transform="translate(482.90002,251)">
    <g
       id="g4942"
       transform="translate(558.5,-252.6875)"
       inkscape:export-filename="/Users/gedge/Sites/thegedge.github.com/assets/images/social-icons/Facebook.png"
       inkscape:export-xdpi="57.599998"
       inkscape:export-ydpi="57.599998">
      <rect
         ry="39.599998"
         y="4.3621826"
         x="0"
         height="198"
         width="198"
         id="rect4944"
         style="fill:#3acbf3;fill-opacity:1;stroke:none" />
      <path
         style="fill:#ffffff;fill-opacity:0.39215686;stroke:none"
         d="M 39.599998,4.3621826 158.4,4.3621826 C 180.3384,4.3621826 198,22.023782 198,43.962181 99,43.375 99,143.375 0,142.76218 L 0,43.962181 C 0,22.023782 17.661599,4.3621826 39.599998,4.3621826 z"
         id="path4946"
         inkscape:connector-curvature="0"
         sodipodi:nodetypes="ssccss" />
      <rect
         style="fill:none;stroke:#c8c8c8;stroke-width:5;stroke-linecap:round;stroke-linejoin:miter;stroke-miterlimit:4;stroke-opacity:0.39215686;stroke-dasharray:none;stroke-dashoffset:0"
         id="rect4948"
         width="195"
         height="195"
         x="1.5"
         y="5.875"
         ry="38.999996" />
      <rect
         style="fill:#0082ae;fill-opacity:1;stroke:none"
         id="rect4950"
         width="198"
         height="198"
         x="0"
         y="4.3621826"
         ry="39.599998" />
      <path
         sodipodi:nodetypes="ssccss"
         inkscape:connector-curvature="0"
         id="path4952"
         d="M 39.599998,4.3621826 158.4,4.3621826 C 180.3384,4.3621826 198,22.023782 198,43.962181 99,43.375 99,143.375 0,142.76218 L 0,43.962181 C 0,22.023782 17.661599,4.3621826 39.599998,4.3621826 z"
         style="fill:#ffffff;fill-opacity:0.39215686;stroke:none" />
      <rect
         ry="38.999996"
         y="5.875"
         x="1.5"
         height="195"
         width="195"
         id="rect4954"
         style="fill:none;stroke:#c8c8c8;stroke-width:5;stroke-linecap:round;stroke-linejoin:miter;stroke-miterlimit:4;stroke-opacity:0.39215686;stroke-dasharray:none;stroke-dashoffset:0" />
    </g>
    <text
       xml:space="preserve"
       style="font-size:128px;font-style:normal;font-variant:normal;font-weight:bold;font-stretch:normal;text-align:start;line-height:125%;writing-mode:lr-tb;text-anchor:start;fill:#ffffff;fill-opacity:1;fill-rule:nonzero;stroke:none;font-family:Sans;-inkscape-font-specification:Times Bold"
       x="589.065"
       y="-93.152496"
       id="text4964"
       sodipodi:linespacing="125%"><tspan
         sodipodi:role="line"
         id="tspan4966"
         x="589.065"
         y="-93.152496"
         style="font-size:160px;font-family:Myriad Pro;-inkscape-font-specification:Myriad Pro">in</tspan></text>
  </g>
  <g
     transform="translate(763.5,479)"
     id="rss"
     inkscape:label="RSS">
    <g
       inkscape:export-ydpi="57.599998"
       inkscape:export-xdpi="57.599998"
       inkscape:export-filename="/Users/gedge/Sites/thegedge.github.com/assets/images/social-icons/Facebook.png"
       transform="translate(538,-480.6875)"
       id="g3821">
      <rect
         style="fill:#3acbf3;fill-opacity:1;stroke:none"
         id="rect3823"
         width="198"
         height="198"
         x="0"
         y="4.3621826"
         ry="39.599998" />
      <path
         sodipodi:nodetypes="ssccss"
         inkscape:connector-curvature="0"
         id="path3825"
         d="M 39.599998,4.3621826 158.4,4.3621826 C 180.3384,4.3621826 198,22.023782 198,43.962181 99,43.375 99,143.375 0,142.76218 L 0,43.962181 C 0,22.023782 17.661599,4.3621826 39.599998,4.3621826 z"
         style="fill:#ffffff;fill-opacity:0.39215686;stroke:none" />
      <rect
         ry="38.999996"
         y="5.875"
         x="1.5"
         height="195"
         width="195"
         id="rect3827"
         style="fill:none;stroke:#c8c8c8;stroke-width:5;stroke-linecap:round;stroke-linejoin:miter;stroke-miterlimit:4;stroke-opacity:0.39215686;stroke-dasharray:none;stroke-dashoffset:0" />
      <rect
         ry="39.599998"
         y="4.3621826"
         x="0"
         height="198"
         width="198"
         id="rect3829"
         style="fill:#ff6600;fill-opacity:1;stroke:none" />
      <path
         style="fill:#ffffff;fill-opacity:0.39215686;stroke:none"
         d="M 39.599998,4.3621826 158.4,4.3621826 C 180.3384,4.3621826 198,22.023782 198,43.962181 99,43.375 99,143.375 0,142.76218 L 0,43.962181 C 0,22.023782 17.661599,4.3621826 39.599998,4.3621826 z"
         id="path3831"
         inkscape:connector-curvature="0"
         sodipodi:nodetypes="ssccss" />
      <rect
         style="fill:none;stroke:#c8c8c8;stroke-width:5;stroke-linecap:round;stroke-linejoin:miter;stroke-miterlimit:4;stroke-opacity:0.39215686;stroke-dasharray:none;stroke-dashoffset:0"
         id="rect3833"
         width="195"
         height="195"
         x="1.5"
         y="5.875"
         ry="38.999996" />
    </g>
    <g
       id="g3871"
       transform="translate(-8.0581891,-250.05742)">
      <path
         transform="matrix(1.268796,0,0,1.2687174,58.812367,-508.80232)"
         d="M 452,333.875 C 452,345.74912 442.37412,355.375 430.5,355.375 418.62588,355.375 409,345.74912 409,333.875 409,322.00088 418.62588,312.375 430.5,312.375 442.37412,312.375 452,322.00088 452,333.875 z"
         sodipodi:ry="21.5"
         sodipodi:rx="21.5"
         sodipodi:cy="333.875"
         sodipodi:cx="430.5"
         id="path3841"
         style="fill:#ffffff;fill-opacity:1;fill-rule:nonzero;stroke:none"
         sodipodi:type="arc" />
      <path
         sodipodi:open="true"
         sodipodi:end="6.2831853"
         sodipodi:start="4.712389"
         sodipodi:type="arc"
         style="fill:none;stroke:#ffffff;stroke-width:7.0051651;stroke-linecap:square;stroke-miterlimit:4;stroke-dasharray:none"
         id="path3849"
         sodipodi:cx="430.5"
         sodipodi:cy="333.875"
         sodipodi:rx="21.5"
         sodipodi:ry="21.5"
         d="M 430.5,312.375 C 442.37412,312.375 452,322.00088 452,333.875"
         transform="matrix(3.5689057,0,0,3.5686846,-949.9139,-1260.195)" />
      <path
         transform="matrix(5.4472768,0,0,5.4469393,-1758.5527,-1887.2974)"
         d="M 430.5,312.375 C 442.37412,312.375 452,322.00088 452,333.875"
         sodipodi:ry="21.5"
         sodipodi:rx="21.5"
         sodipodi:cy="333.875"
         sodipodi:cx="430.5"
         id="path3855"
         style="fill:none;stroke:#ffffff;stroke-width:4.5895915;stroke-linecap:square;stroke-miterlimit:4;stroke-dasharray:none"
         sodipodi:type="arc"
         sodipodi:start="4.712389"
         sodipodi:end="6.2831853"
         sodipodi:open="true" />
    </g>
  </g>
  <g
     transform="matrix(1.25,0,0,-1.25,513,516.96)"
     id="g3264" />
</svg>
